<svg xmlns="http://www.w3.org/2000/svg" width="128" height="128" viewBox="0 0 128 128">
  <defs>
    <linearGradient id="gradient" x1="0%" y1="0%" x2="100%" y2="100%">
      <stop offset="0%" stop-color="#1a73e8" />
      <stop offset="100%" stop-color="#0c5acf" />
    </linearGradient>
  </defs>
  <rect width="128" height="128" rx="24" fill="url(#gradient)" />
  <path fill="#ffffff" d="M64 30c-18.8 0-34 15.2-34 34s15.2 34 34 34 34-15.2 34-34-15.2-34-34-34zm0 62c-15.5 0-28-12.5-28-28s12.5-28 28-28 28 12.5 28 28-12.5 28-28 28z"/>
  <path fill="#ffffff" d="M64 48c-8.8 0-16 7.2-16 16s7.2 16 16 16 16-7.2 16-16-7.2-16-16-16zm0 26c-5.5 0-10-4.5-10-10s4.5-10 10-10 10 4.5 10 10-4.5 10-10 10z"/>
  <path fill="#ffffff" d="M106 58H92v6h14v-6zm-70-6h-6v14h6V52zm30 40h-6v14h6V92zm-18.7-53.3l-4.2 4.2 10 10 4.2-4.2-10-10zm37.4 37.4l-4.2 4.2 10 10 4.2-4.2-10-10z"/>
</svg>